<?xml version="1.0" standalone="no"?>
<!DOCTYPE svg PUBLIC "-//W3C//DTD SVG 20010904//EN"
 "http://www.w3.org/TR/2001/REC-SVG-20010904/DTD/svg10.dtd">
<svg version="1.0" xmlns="http://www.w3.org/2000/svg"
 width="700.000000pt" height="700.000000pt" viewBox="0 0 700.000000 700.000000"
 preserveAspectRatio="xMidYMid meet">
<metadata>
Created by potrace 1.11, written by Peter Selinger 2001-2013
</metadata>
<g transform="translate(0.000000,700.000000) scale(0.100000,-0.100000)"
fill="#000000" stroke="none">
<path d="M2289 5526 c-2 -2 -38 -7 -78 -10 -41 -4 -77 -9 -80 -11 -4 -1 -31
-6 -62 -9 -31 -4 -67 -9 -80 -11 -13 -3 -36 -7 -51 -10 -69 -13 -202 -47 -286
-75 -414 -134 -736 -358 -1036 -720 -10 -13 -50 -70 -88 -127 -113 -168 -228
-407 -286 -593 -11 -36 -27 -88 -36 -117 -22 -72 -73 -334 -81 -418 -4 -38 -9
-72 -10 -75 -9 -14 -19 -263 -19 -430 0 -167 9 -365 18 -416 2 -10 7 -45 11
-78 8 -66 10 -79 31 -196 88 -490 311 -928 634 -1250 143 -144 178 -172 315
-264 172 -115 319 -188 508 -253 96 -32 256 -75 327 -88 19 -3 44 -7 55 -9 11
-3 40 -7 65 -11 25 -3 54 -8 65 -10 93 -19 527 -27 700 -12 50 4 133 14 185
22 136 22 153 25 160 30 4 2 22 7 41 10 66 11 304 87 413 131 212 87 515 258
517 292 3 51 4 678 1 684 -2 4 -35 -20 -75 -55 -83 -72 -167 -136 -252 -192
-33 -22 -62 -42 -65 -45 -12 -12 -75 -46 -205 -110 -255 -125 -504 -193 -780
-215 -81 -6 -314 -7 -365 -1 -19 3 -62 7 -95 10 -33 3 -69 8 -80 10 -11 2 -60
11 -109 21 -346 64 -670 255 -883 520 -184 229 -327 569 -377 897 -3 21 -9 55
-12 75 -3 21 -7 48 -9 59 -27 167 -27 753 0 894 2 10 6 41 10 71 10 87 34 195
70 324 155 552 492 929 985 1103 94 33 289 77 390 87 36 4 76 9 90 11 38 5
370 4 410 -1 220 -30 220 -30 340 -60 200 -50 412 -139 596 -251 69 -42 238
-160 270 -189 44 -39 129 -111 138 -117 8 -4 11 89 10 335 -1 188 -2 349 -3
359 -1 19 -150 113 -306 192 -210 107 -467 195 -705 241 -14 3 -38 8 -55 11
-35 7 -49 9 -130 19 -33 3 -71 9 -85 12 -27 6 -565 14 -571 9z"/>
<path d="M4509 4452 l-25 -3 0 -147 1 -147 120 0 120 0 0 148 c0 93 -3 147
-10 148 -36 3 -184 3 -206 1z"/>
<path d="M5237 4452 c-12 -2 -17 -14 -18 -35 0 -41 0 -1955 1 -1982 0 -20 26
-22 212 -16 l28 1 2 354 3 355 120 -116 c178 -171 533 -512 579 -557 l40 -39
159 -1 158 -1 -113 109 c-62 60 -210 202 -328 316 -118 114 -250 241 -293 282
l-79 74 73 64 c40 36 91 81 113 101 23 20 86 77 142 125 377 331 444 391 439
395 -2 2 -71 3 -154 3 -136 -1 -152 -3 -168 -21 -10 -11 -52 -49 -93 -84 -41
-35 -79 -69 -85 -75 -5 -6 -84 -76 -175 -155 -91 -79 -167 -146 -170 -149 -21
-22 -159 -140 -164 -140 -3 0 -6 268 -6 595 0 327 -3 595 -7 596 -31 2 -203 3
-216 1z"/>
<path d="M6797 4452 c-15 -3 -17 -21 -17 -153 l0 -149 110 0 110 0 0 150 c0
113 -3 150 -12 151 -43 3 -177 3 -191 1z"/>
<path d="M2168 3882 c-18 -3 -23 22 143 -609 17 -65 32 -125 34 -133 2 -8 13
-51 25 -95 24 -88 45 -168 115 -440 26 -99 48 -181 50 -183 3 -3 227 -5 266
-3 11 1 22 23 37 74 19 68 80 294 87 327 4 16 25 96 136 519 62 235 79 293 79
267 0 -5 12 -51 26 -104 14 -54 27 -104 29 -112 2 -8 22 -85 44 -170 100 -380
123 -466 126 -480 4 -19 53 -205 65 -245 4 -16 11 -41 14 -55 l5 -25 121 2
c66 1 131 2 143 2 21 1 26 10 46 89 13 48 24 94 26 102 2 8 22 85 44 170 23
85 56 214 75 285 118 450 142 544 176 670 20 77 34 142 30 145 -9 6 -229 5
-234 -1 -1 -2 -26 -96 -56 -209 -29 -113 -66 -254 -82 -315 -16 -60 -31 -119
-33 -130 -10 -46 -124 -467 -127 -471 -4 -3 -79 277 -260 971 -21 82 -41 151
-43 154 -7 6 -265 7 -276 1 -4 -3 -34 -102 -65 -220 -31 -118 -68 -262 -84
-320 -15 -58 -56 -214 -91 -347 -35 -134 -66 -237 -70 -230 -4 6 -21 68 -39
137 -198 766 -251 961 -262 974 -7 9 -184 15 -220 8z"/>
<path d="M4491 3880 c-9 -7 -8 -1446 1 -1456 6 -5 173 -9 223 -5 12 1 14 1445
3 1457 -9 8 -216 12 -227 4z"/>
<path d="M6781 3153 c-1 -687 1 -733 17 -734 9 0 58 -1 107 -1 l90 0 0 732 0
733 -107 1 -107 1 0 -732z"/>
</g>
</svg>
