<?xml version="1.0" encoding="UTF-8"?>
<svg version="1.1" viewBox="0 0 25 25" xmlns="http://www.w3.org/2000/svg" xmlns:cc="http://creativecommons.org/ns#" xmlns:dc="http://purl.org/dc/elements/1.1/" xmlns:rdf="http://www.w3.org/1999/02/22-rdf-syntax-ns#">
 <metadata>
  <rdf:RDF>
   <cc:Work rdf:about="">
    <dc:format>image/svg+xml</dc:format>
    <dc:type rdf:resource="http://purl.org/dc/dcmitype/StillImage"/>
    <dc:title/>
   </cc:Work>
  </rdf:RDF>
 </metadata>
 <style>.a{fill:#a9c6c9;stroke:#a9c6c9;}</style>
 <g class="a" transform="matrix(.26891 0 0 .26743 .69471 .80344)" fill="#a9c6c9" stroke="#a9c6c9">
  <g class="a" fill="#a9c6c9" stroke="#a9c6c9">
   <g class="a" fill="#a9c6c9" stroke="#a9c6c9">
    <path class="a" d="m43.9 0c-24.2 0-43.9 19.7-43.9 43.9s19.7 43.9 43.9 43.9 43.9-19.7 43.9-43.9c0.1-24.2-19.6-43.9-43.9-43.9zm0 79.9c-19.8 0-35.9-16.1-35.9-35.9s16.1-35.9 35.9-35.9 35.9 16.1 35.9 35.9c0.1 19.7-16.1 35.9-35.9 35.9zm14.1-44.2-5.6-5.6-8.4 8.4-8.4-8.4-5.6 5.6 8.4 8.4-8.4 8.4 5.6 5.6 8.4-8.4 8.4 8.4 5.6-5.6-8.4-8.4z" fill="#a9c6c9" stroke="#a9c6c9"/>
   </g>
  </g>
 </g>
</svg>
