<?xml version="1.0" encoding="UTF-8"?>
<svg version="1.1" viewBox="0 0 25 25" xmlns="http://www.w3.org/2000/svg" xmlns:cc="http://creativecommons.org/ns#" xmlns:dc="http://purl.org/dc/elements/1.1/" xmlns:rdf="http://www.w3.org/1999/02/22-rdf-syntax-ns#">
 <metadata>
  <rdf:RDF>
   <cc:Work rdf:about="">
    <dc:format>image/svg+xml</dc:format>
    <dc:type rdf:resource="http://purl.org/dc/dcmitype/StillImage"/>
    <dc:title/>
   </cc:Work>
  </rdf:RDF>
 </metadata>
 <style>.a{fill:#a9c6c9;stroke:#a9c6c9;}</style>
 <g class="a" transform="matrix(.29373 0 0 .29263 .45086 .93318)" fill="#a9c6c9" stroke="#a9c6c9">
  <g class="a" fill="#a9c6c9" stroke="#a9c6c9">
   <g class="a" fill="#a9c6c9" stroke="#a9c6c9">
    <path class="a" d="m80.5 74.7-21.8-22c4.2-5.5 6.7-12.4 6.7-19.9 0-18.1-14.7-32.8-32.7-32.8s-32.7 14.8-32.7 32.9 14.7 32.8 32.7 32.8c7.6 0 14.7-2.7 20.2-7.1l21.8 21.9zm-47.8-16.4c-14 0-25.3-11.4-25.3-25.5 0-14 11.4-25.4 25.3-25.4 14 0 25.3 11.4 25.3 25.4 0 14.1-11.3 25.5-25.3 25.5z" fill="#a9c6c9" stroke="#a9c6c9"/>
   </g>
  </g>
 </g>
</svg>
