<?xml version="1.0" encoding="UTF-8" standalone="no"?>
<svg
   xmlns:dc="http://purl.org/dc/elements/1.1/"
   xmlns:cc="http://creativecommons.org/ns#"
   xmlns:rdf="http://www.w3.org/1999/02/22-rdf-syntax-ns#"
   xmlns:svg="http://www.w3.org/2000/svg"
   xmlns="http://www.w3.org/2000/svg"
   xmlns:sodipodi="http://sodipodi.sourceforge.net/DTD/sodipodi-0.dtd"
   xmlns:inkscape="http://www.inkscape.org/namespaces/inkscape"
   width="100%"
   height="100%"
   viewBox="0 0 25 25"
   version="1.1"
   id="svg825"
   sodipodi:docname="shrunken-a9c6c9-add-circular-button.svg"
   inkscape:version="0.92.2 (5c3e80d, 2017-08-06)">
  <metadata
     id="metadata831">
    <rdf:RDF>
      <cc:Work
         rdf:about="">
        <dc:format>image/svg+xml</dc:format>
        <dc:type
           rdf:resource="http://purl.org/dc/dcmitype/StillImage" />
        <dc:title></dc:title>
      </cc:Work>
    </rdf:RDF>
  </metadata>
  <defs
     id="defs829" />
  <sodipodi:namedview
     pagecolor="#ffffff"
     bordercolor="#666666"
     borderopacity="1"
     objecttolerance="10"
     gridtolerance="10"
     guidetolerance="10"
     inkscape:pageopacity="0"
     inkscape:pageshadow="2"
     inkscape:window-width="792"
     inkscape:window-height="480"
     id="namedview827"
     showgrid="false"
     inkscape:zoom="4"
     inkscape:cx="11.229167"
     inkscape:cy="12.990724"
     inkscape:window-x="0"
     inkscape:window-y="0"
     inkscape:window-maximized="1"
     inkscape:current-layer="svg825" />
  <style
     id="style815">.a{fill:#a9c6c9;stroke:#a9c6c9;}</style>
  <g
     class="a"
     id="g823"
     transform="matrix(0.26941536,0,0,0.26939435,0.69537547,0.630246)"
     style="fill:#a9c6c9;stroke:#a9c6c9">
    <g
       class="a"
       id="g821"
       style="fill:#a9c6c9;stroke:#a9c6c9">
      <g
         class="a"
         id="g819"
         style="fill:#a9c6c9;stroke:#a9c6c9">
        <path
           d="M 43.9,0 C 19.7,0 0,19.7 0,43.9 c 0,24.2 19.7,43.9 43.9,43.9 24.2,0 44,-19.6 44,-43.9 C 87.9,19.7 68.2,0 43.9,0 Z m 0,79.9 C 24.1,79.9 8,63.8 8,44 8,24.2 24.1,8.1 43.9,8.1 63.7,8.1 79.8,24.2 79.8,44 79.9,63.7 63.8,79.9 43.9,79.9 Z m 4,-51.9 h -8 v 11.9 h -12 v 8 h 12 v 12 h 8 v -12 h 12 v -8 h -12 z"
           class="a"
           id="path817"
           inkscape:connector-curvature="0"
           style="fill:#a9c6c9;stroke:#a9c6c9" />
      </g>
    </g>
  </g>
</svg>
